<svg xmlns="http://www.w3.org/2000/svg" width="18" height="18" viewBox="0 0 18 18"><path fill-rule="evenodd" clip-rule="evenodd" fill="#222" d="M2.3 0h13.4C17 0 18 1 18 2.3v13.4c0 1.3-1 2.3-2.3 2.3H2.3C1 18 0 17 0 15.7V2.3C0 1 1 0 2.3 0zm10.8 2c-.4 0-.8.4-.8.8v1.9c0 .4.4.8.8.8h2c.4 0 .8-.4.8-.8V2.8c.1-.4-.3-.8-.8-.8h-2zM16 7.6h-1.6c.1.5.2 1 .2 1.5 0 3-2.5 5.4-5.6 5.4-3.1 0-5.6-2.4-5.6-5.4 0-.5.1-1.1.2-1.5H2v7.6c0 .4.3.7.7.7h12.5c.4 0 .7-.3.7-.7V7.6h.1zM9 5.5C7 5.5 5.4 7 5.4 9c0 1.9 1.6 3.5 3.6 3.5s3.6-1.6 3.6-3.5c0-2-1.6-3.5-3.6-3.5z"/></svg>