<?xml version="1.0" encoding="utf-8"?>
<!-- Generator: Adobe Illustrator 18.1.1, SVG Export Plug-In . SVG Version: 6.00 Build 0)  -->
<!DOCTYPE svg PUBLIC "-//W3C//DTD SVG 1.1//EN" "http://www.w3.org/Graphics/SVG/1.1/DTD/svg11.dtd">
<svg version="1.1" id="Layer_1" xmlns="http://www.w3.org/2000/svg" xmlns:xlink="http://www.w3.org/1999/xlink" x="0px" y="0px"
	 width="594.1px" height="160px" viewBox="0 0 594.1 160" enable-background="new 0 0 594.1 160" xml:space="preserve">
<g>
	<polygon fill="#222222" points="132.8,19 135.4,0 41.3,0 22.5,0 19.8,18.8 15.9,47.1 13.2,66 32.1,66 107.3,66 103.4,94 28.1,94 
		9.3,94 6.6,112.9 0,160 18.8,160 25.4,113 100.7,113 119.6,113 122.2,94.1 126.2,65.9 128.8,47 110,47 34.7,47 38.7,19 	"/>
	<path fill="#222222" d="M208.9,18c-1.9-3-6.4-4.4-10-4.4c-4.1,0-10.2,1.9-10.8,6.9c-1.8,12.1,30,4.3,26.7,27.6
		c-2.1,14.9-15,21.9-28.8,21.9c-8.6,0-15.7-2.5-21.1-8.4l12-11.5c2.4,3.9,7,6.3,11.9,6.3c4.8,0,10.4-2.3,11.1-7
		c1.7-12.2-30.4-5.6-27.3-27.8C174.7,7.5,188.1,0,201.1,0c7.5,0,14.5,2,19.5,7L208.9,18z"/>
	<path fill="#222222" d="M245.1,14.7h-19l1.9-13h52.6l-1.9,13h-19l-7.5,53.6h-14.7L245.1,14.7z"/>
	<path fill="#222222" d="M338.6,42.6C336.4,58.3,325.2,70,306.7,70c-18.5,0-26.4-11.7-24.3-27.4l5.8-40.9H303L297.3,42
		c-1.1,8.2,3.7,14.4,11.5,14.4c7.7,0,14.2-6.2,15.3-14.4l5.7-40.3h14.7L338.6,42.6z"/>
	<path fill="#222222" d="M353.9,1.7h22c21.4,0,38.1,9.1,34.6,33.5c-3,21.5-22.2,33.1-42,33.1h-24L353.9,1.7z M361,54.7h7.6
		c13.6,0,24.6-5.2,26.8-20.3c1.8-13.1-7.8-19.2-20.2-19.2h-8.6L361,54.7z"/>
	<path fill="#222222" d="M425.1,1.7h14.7l-9.4,66.5h-14.7L425.1,1.7z"/>
	<path fill="#222222" d="M485.7,0c20.8,0,34,13.6,31,35s-20.1,35-40.9,35c-20.8,0-33.9-13.6-30.9-35S464.9,0,485.7,0z M477.8,56.4
		c12.5,0,21.9-9,23.7-21.4c1.7-12.4-5.2-21.4-17.7-21.4s-22,9-23.7,21.4C458.4,47.4,465.3,56.4,477.8,56.4z"/>
	<path fill="#222222" d="M161.1,91.7h24.7c13.8,0,24.6,4.4,22.4,20.2c-2.2,15.6-13.4,20.4-27.4,20.4H170l-3.7,25.9h-14.7L161.1,91.7
		z M171.7,119.9h9.8c5.2,0,10.6-1.8,11.5-8c1-6.9-5.8-7.8-11.5-7.8H174L171.7,119.9z"/>
	<path fill="#222222" d="M219.4,91.7h25.8c13.6,0,24.3,4.7,22.2,20.2c-1.3,9.3-7.2,16.5-16.9,18.2l13,28.1h-17.6l-10.2-26.6h-7.2
		l-3.8,26.6H210L219.4,91.7z M230.1,119.3h8.6c5.4,0,12.4-0.2,13.3-7.4c0.9-6.7-4.9-7.7-10.2-7.7h-9.6L230.1,119.3z"/>
	<path fill="#222222" d="M281.5,91.7h45.2l-2,13.5h-30.5l-1.7,12.4h28.9l-2,13.5h-28.9l-1.9,13.5h32.2l-1.9,13.5h-46.9L281.5,91.7z"
		/>
	<path fill="#222222" d="M370.4,108c-1.9-3-6.4-4.4-10-4.4c-4.1,0-10.2,1.9-10.8,6.9c-1.8,12.1,30,4.3,26.7,27.6
		c-2.1,14.9-15,21.9-28.8,21.9c-8.6,0-15.7-2.5-21.1-8.4l12-11.5c2.4,3.9,7,6.3,11.9,6.3c4.8,0,10.4-2.3,11.1-7
		c1.7-12.2-30.4-5.6-27.3-27.8c2-14.2,15.3-21.6,28.4-21.6c7.5,0,14.5,2,19.5,7L370.4,108z"/>
	<path fill="#222222" d="M405.2,104.7h-19l1.9-13h52.6l-1.9,13h-19l-7.5,53.6h-14.7L405.2,104.7z"/>
	<path fill="#222222" d="M447.3,91.7H462l-9.4,66.5h-14.7L447.3,91.7z"/>
	<path fill="#222222" d="M526.9,153.6c-9.3,4.5-19.1,6.4-28.9,6.4c-20.8,0-33.9-13.6-30.9-35s20-35,40.8-35
		c10.5,0,19.6,2.4,25.3,8.6l-11.9,11.3c-3.3-4.1-7.8-6.3-15.2-6.3c-12.5,0-22,9-23.7,21.4c-1.8,12.4,5.2,21.4,17.7,21.4
		c6.4,0,11.3-1.8,14.3-3.3l1.5-10.8h-11.9l1.9-13.5h26L526.9,153.6z"/>
	<path fill="#222222" d="M548.9,91.7h45.2l-2,13.5h-30.5l-1.7,12.4h28.9l-2,13.5H558l-1.9,13.5h32.2l-1.9,13.5h-46.9L548.9,91.7z"/>
</g>
</svg>
